<svg width="13" height="12" viewBox="0 0 13 12" fill="none" xmlns="http://www.w3.org/2000/svg">
<path d="M5.66915 5.87626L2.64645 2.85355C2.45335 2.66045 2.45122 2.34871 2.64 2.15301L2.64645 2.14644C2.84171 1.95119 3.1583 1.95119 3.35356 2.14644L5.66915 5.87626ZM9.52271 2.0227L6.50001 5.0454L3.4773 2.0227C3.2137 1.7591 2.78631 1.7591 2.52271 2.0227L2.5227 2.02269L2.5216 2.02382L2.51515 2.03038L2.51515 2.03038L2.51406 2.03151C2.25913 2.29577 2.26201 2.7166 2.52271 2.9773L5.54541 6L2.52271 9.0227C2.25911 9.2863 2.25911 9.7137 2.52271 9.9773C2.78631 10.2409 3.2137 10.2409 3.4773 9.9773L6.50001 6.9546L9.52271 9.9773C9.78631 10.2409 10.2137 10.2409 10.4773 9.9773L10.4784 9.97618L10.4849 9.96962L10.4849 9.96962L10.486 9.96849C10.7409 9.70424 10.738 9.2834 10.4773 9.0227L7.4546 6L10.4773 2.9773C10.7409 2.7137 10.7409 2.2863 10.4773 2.0227C10.2137 1.7591 9.78631 1.7591 9.52271 2.0227Z" fill="black" stroke="black" stroke-width="0.35"/>
</svg>
