<svg width="18" height="18" viewBox="0 0 18 18" fill="none" xmlns="http://www.w3.org/2000/svg">
<path d="M8.24982 3.00005H12.3487C11.8299 2.10334 10.8604 1.50005 9.75 1.50005H5.25C3.59315 1.50005 2.25 2.84319 2.25 4.50005V10.5C2.25 11.6104 2.85322 12.5799 3.74982 13.0986V7.50005C3.74982 5.01476 5.76453 3.00005 8.24982 3.00005Z" fill="black"/>
<path fill-rule="evenodd" clip-rule="evenodd" d="M15.7498 7.50005C15.7498 5.84319 14.4067 4.50005 12.7498 4.50005H8.24984C6.59298 4.50005 5.24984 5.84319 5.24984 7.50005V13.5C5.24984 15.1569 6.59298 16.5 8.24984 16.5H12.7498C14.4067 16.5 15.7498 15.1569 15.7498 13.5V7.50005ZM12.7498 6.00005H8.24984C7.42141 6.00005 6.74984 6.67162 6.74984 7.50005V13.5C6.74984 14.3285 7.42141 15 8.24984 15H12.7498C13.5783 15 14.2498 14.3285 14.2498 13.5V7.50005C14.2498 6.67162 13.5783 6.00005 12.7498 6.00005Z" fill="black"/>
<path d="M8.24982 3.00005H12.3487C11.8299 2.10334 10.8604 1.50005 9.75 1.50005H5.25C3.59315 1.50005 2.25 2.84319 2.25 4.50005V10.5C2.25 11.6104 2.85322 12.5799 3.74982 13.0986V7.50005C3.74982 5.01476 5.76453 3.00005 8.24982 3.00005Z" stroke="black" stroke-width="0.35"/>
<path fill-rule="evenodd" clip-rule="evenodd" d="M15.7498 7.50005C15.7498 5.84319 14.4067 4.50005 12.7498 4.50005H8.24984C6.59298 4.50005 5.24984 5.84319 5.24984 7.50005V13.5C5.24984 15.1569 6.59298 16.5 8.24984 16.5H12.7498C14.4067 16.5 15.7498 15.1569 15.7498 13.5V7.50005ZM12.7498 6.00005H8.24984C7.42141 6.00005 6.74984 6.67162 6.74984 7.50005V13.5C6.74984 14.3285 7.42141 15 8.24984 15H12.7498C13.5783 15 14.2498 14.3285 14.2498 13.5V7.50005C14.2498 6.67162 13.5783 6.00005 12.7498 6.00005Z" stroke="black" stroke-width="0.35"/>
</svg>
