<svg width="10" height="10" viewBox="0 0 10 10" fill="none" xmlns="http://www.w3.org/2000/svg">
<path fill-rule="evenodd" clip-rule="evenodd" d="M4.99967 9.16671C7.30086 9.16671 9.16634 7.30123 9.16634 5.00004C9.16634 2.69885 7.30086 0.833374 4.99967 0.833374C2.69849 0.833374 0.833008 2.69885 0.833008 5.00004C0.833008 7.30123 2.69849 9.16671 4.99967 9.16671ZM4.16634 2.91671C4.16634 2.45647 4.53944 2.08337 4.99967 2.08337C5.45991 2.08337 5.83301 2.45647 5.83301 2.91671C5.83301 3.37694 5.45991 3.75004 4.99967 3.75004C4.53944 3.75004 4.16634 3.37694 4.16634 2.91671ZM5.62467 7.29171C5.62467 7.63688 5.34485 7.91671 4.99967 7.91671C4.6545 7.91671 4.37467 7.63688 4.37467 7.29171L4.37467 5.20837C4.37467 4.8632 4.6545 4.58337 4.99967 4.58337C5.34485 4.58337 5.62467 4.8632 5.62467 5.20837V7.29171Z" fill="#687B8C"/>
</svg>
