<svg width="18" height="19" viewBox="0 0 18 19" fill="none" xmlns="http://www.w3.org/2000/svg">
<path d="M12.1129 0.982164L12.2069 1.06516L17.7069 6.56516C17.8755 6.73464 17.9778 6.95889 17.9952 7.19729C18.0127 7.43569 17.9442 7.67246 17.8021 7.86471C17.6601 8.05695 17.4538 8.19194 17.2208 8.24523C16.9878 8.29851 16.7434 8.26656 16.5319 8.15516L13.3599 11.3262L11.9359 15.1232C11.8984 15.2234 11.845 15.3169 11.7779 15.4002L11.7079 15.4802L10.2079 16.9802C10.0356 17.1522 9.8064 17.2554 9.56338 17.2705C9.32035 17.2856 9.08017 17.2115 8.88788 17.0622L8.79288 16.9792L5.99988 14.1872L2.20688 17.9792C2.02693 18.1585 1.78545 18.2626 1.5315 18.2704C1.27755 18.2781 1.03017 18.1889 0.839606 18.0209C0.64904 17.8529 0.529579 17.6186 0.505486 17.3657C0.481392 17.1128 0.554473 16.8602 0.709884 16.6592L0.792884 16.5652L4.58488 12.7722L1.79288 9.97916C1.62071 9.80697 1.51728 9.57787 1.502 9.33485C1.48671 9.09182 1.56063 8.85157 1.70988 8.65916L1.79288 8.56516L3.29288 7.06516C3.36834 6.98944 3.45544 6.92631 3.55088 6.87816L3.64888 6.83616L7.44488 5.41116L10.6159 2.24116C10.5078 2.039 10.4724 1.80581 10.5157 1.58067C10.559 1.35553 10.6783 1.1521 10.8537 1.00446C11.0291 0.856824 11.25 0.773944 11.4792 0.769702C11.7084 0.765461 11.9321 0.841117 12.1129 0.982164Z" fill="black"/>
</svg>
