<svg width="23" height="23" viewBox="0 0 23 23" fill="none" xmlns="http://www.w3.org/2000/svg">
<path fill-rule="evenodd" clip-rule="evenodd" d="M11.2568 4.0272C11.6232 4.0272 11.9202 4.3242 11.9202 4.69054L11.9202 10.594L17.8236 10.594C18.1859 10.594 18.4804 10.8844 18.4869 11.2451L18.487 11.2573C18.487 11.6237 18.19 11.9207 17.8236 11.9207L11.9202 11.9207L11.9202 17.8241C11.9202 18.1904 11.6232 18.4874 11.2568 18.4874C10.8905 18.4874 10.5935 18.1904 10.5935 17.8241L10.5935 11.9207L4.69007 11.9207C4.32777 11.9207 4.03332 11.6302 4.02683 11.2695L4.02672 11.2573C4.02672 10.891 4.32372 10.594 4.69007 10.594L10.5935 10.594L10.5935 4.69054C10.5935 4.3242 10.8905 4.0272 11.2568 4.0272Z" fill="black"/>
</svg>
