<svg width="16" height="12" viewBox="0 0 16 12" fill="none" xmlns="http://www.w3.org/2000/svg">
<path d="M1.0001 0.771973C1.26532 0.771973 1.51968 0.87733 1.70721 1.06487C1.89475 1.2524 2.0001 1.50676 2.0001 1.77197V5.77197C2.0001 6.03719 2.10546 6.29154 2.293 6.47908C2.48053 6.66662 2.73489 6.77197 3.0001 6.77197H12.5901L11.2901 5.48197C11.1018 5.29367 10.996 5.03827 10.996 4.77197C10.996 4.50567 11.1018 4.25028 11.2901 4.06197C11.4784 3.87367 11.7338 3.76788 12.0001 3.76788C12.2664 3.76788 12.5218 3.87367 12.7101 4.06197L15.7101 7.06197C15.8011 7.15708 15.8725 7.26922 15.9201 7.39197C16.0201 7.63543 16.0201 7.90851 15.9201 8.15197C15.8725 8.27472 15.8011 8.38687 15.7101 8.48197L12.7101 11.482C12.6171 11.5757 12.5065 11.6501 12.3847 11.7009C12.2628 11.7516 12.1321 11.7778 12.0001 11.7778C11.8681 11.7778 11.7374 11.7516 11.6155 11.7009C11.4937 11.6501 11.3831 11.5757 11.2901 11.482C11.1964 11.389 11.122 11.2784 11.0712 11.1565C11.0204 11.0347 10.9943 10.904 10.9943 10.772C10.9943 10.64 11.0204 10.5093 11.0712 10.3874C11.122 10.2655 11.1964 10.1549 11.2901 10.062L12.5901 8.77197H3.0001C2.20445 8.77197 1.44139 8.4559 0.878783 7.89329C0.316175 7.33068 0.000103951 6.56762 0.000103951 5.77197V1.77197C0.000103951 1.50676 0.10546 1.2524 0.292996 1.06487C0.480533 0.87733 0.734887 0.771973 1.0001 0.771973Z" fill="black"/>
</svg>
