<svg width="48" height="48" viewBox="0 0 48 48" fill="none" xmlns="http://www.w3.org/2000/svg">
<path d="M24 47.9999C37.2548 47.9999 48 37.3232 48 24.1528C48 10.9824 37.2548 0.305664 24 0.305664C10.7452 0.305664 0 10.9824 0 24.1528C0 37.3232 10.7452 47.9999 24 47.9999Z" fill="#9CE8C2"/>
<path fill-rule="evenodd" clip-rule="evenodd" d="M45.3702 1.01704C46.5014 2.27535 46.396 4.21033 45.1349 5.33895C35.2934 14.1459 29.9135 26.6958 28.4134 41.2772C28.2737 42.6349 27.2499 43.7363 25.9033 43.9772C24.5568 44.2181 23.2132 43.5403 22.6093 42.3156C19.3343 35.6729 14.4507 31.9957 8.38626 29.5638C6.81433 28.9334 6.05221 27.151 6.68404 25.5826C7.31586 24.0143 9.10236 23.2539 10.6743 23.8843C15.5162 25.826 19.9243 28.5552 23.5322 32.6805C26.1097 20.2113 31.7312 9.11118 41.0384 0.78222C42.2996 -0.346397 44.239 -0.241263 45.3702 1.01704Z" fill="#00672E"/>
</svg>
