<svg width="148" height="29" viewBox="0 0 148 29" fill="none" xmlns="http://www.w3.org/2000/svg">
<path d="M39.4817 15.4201C36.3752 15.1023 34.6658 13.3713 34.6658 10.4698C34.6658 7.42145 37.0737 5.49561 40.9262 5.49561C44.7786 5.49561 47.0904 7.44692 47.4027 10.6167H43.8151C43.5502 9.08052 42.6356 8.34915 40.8773 8.34915C39.2878 8.34915 38.2533 9.10449 38.2533 10.275C38.2533 11.2012 38.8793 11.6898 40.1314 11.8591L42.4195 12.1034C45.9833 12.4931 47.6927 14.1521 47.6927 17.199C47.6927 20.2459 45.2374 22.1493 41.5049 22.1493C37.5074 22.1493 34.907 20.15 34.5459 16.9307H38.1823C38.4472 18.5164 39.5305 19.2717 41.5285 19.2717C43.0929 19.2717 44.1289 18.4909 44.1289 17.2964C44.1289 16.3702 43.4067 15.8337 41.9859 15.6868L39.4817 15.4186V15.4201Z" fill="white"/>
<path d="M55.0917 9.05664C58.8243 9.05664 61.3521 11.6899 61.3521 15.6644C61.3521 19.639 58.8243 22.3202 55.0917 22.3202C51.3591 22.3202 48.8076 19.663 48.8076 15.6644C48.8076 11.6659 51.3118 9.05664 55.0917 9.05664ZM55.0917 12.129C53.406 12.129 52.3951 13.4209 52.3951 15.6644C52.3951 17.908 53.406 19.2494 55.0917 19.2494C56.7774 19.2494 57.7409 17.932 57.7409 15.6644C57.7409 13.3969 56.7537 12.129 55.0917 12.129Z" fill="white"/>
<path d="M66.1974 9.47036V11.4936C67.0158 10.0309 68.2442 9.22607 69.4238 9.22607H70.2422V12.8829H69.4475C67.6182 12.8829 66.1974 13.932 66.1974 15.3948V21.9531H62.6572V9.47036H66.1974Z" fill="white"/>
<path d="M77.2118 9.05664C80.9444 9.05664 83.4722 11.6899 83.4722 15.6644C83.4722 19.639 80.9444 22.3202 77.2118 22.3202C73.4793 22.3202 70.9277 19.663 70.9277 15.6644C70.9277 11.6659 73.4319 9.05664 77.2118 9.05664ZM77.2118 12.129C75.5261 12.129 74.5153 13.4209 74.5153 15.6644C74.5153 17.908 75.5261 19.2494 77.2118 19.2494C78.8975 19.2494 79.861 17.932 79.861 15.6644C79.861 13.3969 78.8739 12.129 77.2118 12.129Z" fill="white"/>
<path d="M88.652 16.9806C85.8593 16.6884 84.511 15.3965 84.511 13.1529C84.511 10.6665 86.5815 9.13037 89.9529 9.13037C93.3244 9.13037 95.3224 10.6905 95.611 13.2263H92.1685C91.9761 12.1772 91.2775 11.6902 89.9781 11.6902C88.8222 11.6902 88.0763 12.1772 88.0763 12.9581C88.0763 13.6655 88.5099 14.0072 89.4246 14.1286L91.9287 14.3729C94.6978 14.6411 95.9011 15.909 95.9011 18.3474C95.9011 20.7858 93.758 22.2725 90.5079 22.2725C86.9678 22.2725 84.7285 20.6869 84.3926 18.2006H88.0038C88.2199 19.2736 88.9909 19.7367 90.4591 19.7367C91.6623 19.7367 92.4571 19.2736 92.4571 18.4928C92.4571 17.7854 92.0235 17.3463 91.0126 17.2249L88.6535 16.9806H88.652Z" fill="white"/>
<path d="M100.597 9.47032V11.3962C101.439 9.93342 102.787 9.05518 104.449 9.05518C107.483 9.05518 109.53 11.6884 109.53 15.663C109.53 19.6376 107.483 22.3187 104.449 22.3187C102.789 22.3187 101.439 21.4405 100.597 19.9538V26.025H97.0566V9.47032H100.597ZM103.27 12.129C101.584 12.129 100.597 13.4209 100.597 15.6645C100.597 17.908 101.584 19.2494 103.27 19.2494C104.955 19.2494 105.919 17.932 105.919 15.6645C105.919 13.3969 104.932 12.129 103.27 12.129Z" fill="white"/>
<path d="M114.376 4.47217V21.9546H110.836V4.47217H114.376Z" fill="white"/>
<path d="M119.927 4.96094V7.98383H116.051V4.96094H119.927ZM119.76 9.47055V21.9548H116.22V9.47055H119.76Z" fill="white"/>
<path d="M128.709 21.9545H127.338C124.882 21.9545 123.22 20.6371 123.22 18.0039V12.3478H121.27V9.47025H123.22V6.22705H126.76V9.47025H128.711V12.3478H126.76V17.5168C126.76 18.5659 127.145 18.9316 127.867 18.9316H128.709V21.9545Z" fill="white"/>
<path d="M133.928 16.9806C131.136 16.6884 129.787 15.3965 129.787 13.1529C129.787 10.6665 131.858 9.13037 135.229 9.13037C138.601 9.13037 140.599 10.6905 140.887 13.2263H137.445C137.252 12.1772 136.554 11.6902 135.254 11.6902C134.099 11.6902 133.353 12.1772 133.353 12.9581C133.353 13.6655 133.786 14.0072 134.701 14.1286L137.205 14.3729C139.974 14.6411 141.177 15.909 141.177 18.3474C141.177 20.7858 139.034 22.2725 135.784 22.2725C132.244 22.2725 130.006 20.6869 129.669 18.2006H133.28C133.496 19.2736 134.267 19.7367 135.735 19.7367C136.939 19.7367 137.733 19.2736 137.733 18.4928C137.733 17.7854 137.3 17.3463 136.289 17.2249L133.93 16.9806H133.928Z" fill="white"/>
<path d="M28.9643 5.51074H11.2413C11.0778 5.51074 10.9453 5.64494 10.9453 5.81048V13.0238C10.9453 13.1893 11.0778 13.3235 11.2413 13.3235H28.9643C29.1278 13.3235 29.2603 13.1893 29.2603 13.0238V5.81048C29.2603 5.64494 29.1278 5.51074 28.9643 5.51074Z" fill="#FF9E9E"/>
<path d="M24.8452 14.3335H7.12217C6.9587 14.3335 6.82617 14.4677 6.82617 14.6332V21.8465C6.82617 22.0121 6.9587 22.1463 7.12217 22.1463H24.8452C25.0086 22.1463 25.1412 22.0121 25.1412 21.8465V14.6332C25.1412 14.4677 25.0086 14.3335 24.8452 14.3335Z" fill="#FFDC93"/>
</svg>
