<?xml version="1.0" encoding="UTF-8"?>
<svg id="Layer_1" data-name="Layer 1" xmlns="http://www.w3.org/2000/svg" viewBox="0 0 1000 193.5">
  <defs>
    <style>
      .cls-1 {
        fill: #ff9e9e;
      }

      .cls-1, .cls-2, .cls-3 {
        stroke-width: 0px;
      }

      .cls-2 {
        fill: #282828;
      }

      .cls-3 {
        fill: #ffdc93;
      }
    </style>
  </defs>
  <path class="cls-2" d="M266.77,102.89c-20.99-2.12-32.54-13.67-32.54-33.03,0-20.34,16.27-33.19,42.3-33.19s41.65,13.02,43.76,34.17h-24.24c-1.79-10.25-7.97-15.13-19.85-15.13-10.74,0-17.73,5.04-17.73,12.85,0,6.18,4.23,9.44,12.69,10.57l15.46,1.63c24.08,2.6,35.63,13.67,35.63,34s-16.59,33.03-41.81,33.03c-27.01,0-44.58-13.34-47.02-34.82h24.57c1.79,10.58,9.11,15.62,22.61,15.62,10.57,0,17.57-5.21,17.57-13.18,0-6.18-4.88-9.76-14.48-10.74l-16.92-1.79Z"/>
  <path class="cls-2" d="M372.24,60.43c25.22,0,42.3,17.57,42.3,44.09s-17.08,44.41-42.3,44.41-42.46-17.73-42.46-44.41,16.92-44.09,42.46-44.09ZM372.24,80.93c-11.39,0-18.22,8.62-18.22,23.59s6.83,23.92,18.22,23.92,17.9-8.79,17.9-23.92-6.67-23.59-17.9-23.59Z"/>
  <path class="cls-2" d="M447.28,63.19v13.5c5.53-9.76,13.83-15.13,21.8-15.13h5.53v24.4h-5.37c-12.36,0-21.96,7-21.96,16.76v43.76h-23.92V63.19h23.92Z"/>
  <path class="cls-2" d="M521.7,60.43c25.22,0,42.3,17.57,42.3,44.09s-17.08,44.41-42.3,44.41-42.46-17.73-42.46-44.41,16.92-44.09,42.46-44.09ZM521.7,80.93c-11.39,0-18.22,8.62-18.22,23.59s6.83,23.92,18.22,23.92,17.9-8.79,17.9-23.92-6.67-23.59-17.9-23.59Z"/>
  <path class="cls-2" d="M599,113.3c-18.87-1.95-27.98-10.57-27.98-25.54,0-16.59,13.99-26.84,36.77-26.84s36.28,10.41,38.23,27.33h-23.26c-1.3-7-6.02-10.25-14.8-10.25-7.81,0-12.85,3.25-12.85,8.46,0,4.72,2.93,7,9.11,7.81l16.92,1.63c18.71,1.79,26.84,10.25,26.84,26.52s-14.48,26.19-36.44,26.19c-23.92,0-39.05-10.58-41.32-27.17h24.4c1.46,7.16,6.67,10.25,16.59,10.25,8.13,0,13.5-3.09,13.5-8.3,0-4.72-2.93-7.65-9.76-8.46l-15.94-1.63Z"/>
  <path class="cls-2" d="M679.71,63.19v12.85c5.69-9.76,14.8-15.62,26.03-15.62,20.5,0,34.33,17.57,34.33,44.09s-13.83,44.41-34.33,44.41c-11.22,0-20.34-5.86-26.03-15.78v40.51h-23.92V63.19h23.92ZM697.77,80.93c-11.39,0-18.06,8.62-18.06,23.59s6.67,23.92,18.06,23.92,17.9-8.79,17.9-23.92-6.67-23.59-17.9-23.59Z"/>
  <path class="cls-2" d="M772.81,29.84v116.65h-23.92V29.84h23.92Z"/>
  <path class="cls-2" d="M810.32,33.1v20.17h-26.19v-20.17h26.19ZM809.19,63.19v83.3h-23.92V63.19h23.92Z"/>
  <path class="cls-2" d="M869.66,146.49h-9.27c-16.59,0-27.82-8.79-27.82-26.36v-37.74h-13.18v-19.2h13.18v-21.64h23.92v21.64h13.18v19.2h-13.18v34.49c0,7,2.6,9.44,7.48,9.44h5.69v20.17Z"/>
  <path class="cls-2" d="M904.92,113.3c-18.87-1.95-27.98-10.57-27.98-25.54,0-16.59,13.99-26.84,36.77-26.84s36.28,10.41,38.23,27.33h-23.26c-1.3-7-6.02-10.25-14.8-10.25-7.81,0-12.85,3.25-12.85,8.46,0,4.72,2.93,7,9.11,7.81l16.92,1.63c18.71,1.79,26.84,10.25,26.84,26.52s-14.48,26.19-36.44,26.19c-23.92,0-39.04-10.58-41.32-27.17h24.4c1.46,7.16,6.67,10.25,16.59,10.25,8.13,0,13.5-3.09,13.5-8.3,0-4.72-2.93-7.65-9.76-8.46l-15.94-1.63Z"/>
  <g>
    <rect class="cls-1" x="73.95" y="36.77" width="123.75" height="52.13" rx="2" ry="2"/>
    <rect class="cls-3" x="46.12" y="95.64" width="123.75" height="52.13" rx="2" ry="2"/>
  </g>
</svg>